<?xml version="1.0" encoding="UTF-8"?>
<svg xmlns="http://www.w3.org/2000/svg" viewBox="0 0 60 40" width="60" height="40"><rect x="0" y="0" width="60" height="40" fill="#00247D"/>
      <rect x="0" y="0" width="30" height="20" fill="#012169"/>
      <path d="M0 0 L30 20 M30 0 L0 20" stroke="#fff" stroke-width="3"/>
      <path d="M0 0 L30 20 M30 0 L0 20" stroke="#C8102E" stroke-width="1.5"/>
      <rect x="12" y="0" width="6" height="20" fill="#fff"/><rect x="0" y="7" width="30" height="6" fill="#fff"/>
      <rect x="13" y="0" width="4" height="20" fill="#C8102E"/><rect x="0" y="8" width="30" height="4" fill="#C8102E"/>
      <g fill="#fff">
        <circle cx="45" cy="10" r="1.2"/><circle cx="40" cy="16" r="1"/><circle cx="50" cy="16" r="1"/>
        <circle cx="42" cy="24" r="1"/><circle cx="48" cy="24" r="1"/><circle cx="45" cy="30" r="1.4"/>
      </g></svg>
