<?xml version="1.0" encoding="UTF-8"?>
<svg xmlns="http://www.w3.org/2000/svg" viewBox="0 0 60 40" width="60" height="40"><rect x="0" y="0" width="60" height="13.533333333333333" fill="#FF9933"/><rect x="0" y="13.333333333333334" width="60" height="13.533333333333333" fill="#fff"/><rect x="0" y="26.666666666666668" width="60" height="13.533333333333333" fill="#138808"/>
      <circle cx="30" cy="20" r="5.2" fill="none" stroke="#000080" stroke-width="1"/>
      <circle cx="30" cy="20" r="1" fill="#000080"/>
      <g stroke="#000080" stroke-width="0.6"><line x1="30" y1="20" x2="35" y2="20"/><line x1="30" y1="20" x2="34.33012701892219" y2="22.5"/><line x1="30" y1="20" x2="32.5" y2="24.33012701892219"/><line x1="30" y1="20" x2="30" y2="25"/><line x1="30" y1="20" x2="27.5" y2="24.330127018922195"/><line x1="30" y1="20" x2="25.669872981077805" y2="22.5"/><line x1="30" y1="20" x2="25" y2="20"/><line x1="30" y1="20" x2="25.669872981077805" y2="17.5"/><line x1="30" y1="20" x2="27.499999999999996" y2="15.669872981077807"/><line x1="30" y1="20" x2="30" y2="15"/><line x1="30" y1="20" x2="32.5" y2="15.669872981077807"/><line x1="30" y1="20" x2="34.33012701892219" y2="17.499999999999996"/></g></svg>
