<?xml version="1.0" encoding="UTF-8"?>
<svg xmlns="http://www.w3.org/2000/svg" viewBox="0 0 60 40" width="60" height="40"><rect x="0" y="0" width="60" height="3.0571428571428574" fill="#CC0001"/><rect x="0" y="2.857142857142857" width="60" height="3.0571428571428574" fill="#fff"/><rect x="0" y="5.714285714285714" width="60" height="3.0571428571428574" fill="#CC0001"/><rect x="0" y="8.571428571428571" width="60" height="3.0571428571428574" fill="#fff"/><rect x="0" y="11.428571428571429" width="60" height="3.0571428571428574" fill="#CC0001"/><rect x="0" y="14.285714285714286" width="60" height="3.0571428571428574" fill="#fff"/><rect x="0" y="17.142857142857142" width="60" height="3.0571428571428574" fill="#CC0001"/><rect x="0" y="20" width="60" height="3.0571428571428574" fill="#fff"/><rect x="0" y="22.857142857142858" width="60" height="3.0571428571428574" fill="#CC0001"/><rect x="0" y="25.714285714285715" width="60" height="3.0571428571428574" fill="#fff"/><rect x="0" y="28.571428571428573" width="60" height="3.0571428571428574" fill="#CC0001"/><rect x="0" y="31.428571428571427" width="60" height="3.0571428571428574" fill="#fff"/><rect x="0" y="34.285714285714285" width="60" height="3.0571428571428574" fill="#CC0001"/><rect x="0" y="37.142857142857146" width="60" height="3.0571428571428574" fill="#fff"/><rect x="0" y="0" width="28" height="22.857142857142858" fill="#010066"/>
      <circle cx="14" cy="11.5" r="6" fill="#FFCC00"/>
      <circle cx="16.5" cy="11.5" r="5" fill="#010066"/>
      <polygon points="22,8 23,11 26,11 23.7,12.8 24.7,16 22,14 19.3,16 20.3,12.8 18,11 21,11" fill="#FFCC00"/></svg>
