<?xml version="1.0" encoding="UTF-8"?>
<svg xmlns="http://www.w3.org/2000/svg" viewBox="0 0 60 40" width="60" height="40"><rect x="0" y="0" width="60" height="3.2769230769230773" fill="#B22234"/><rect x="0" y="3.076923076923077" width="60" height="3.2769230769230773" fill="#fff"/><rect x="0" y="6.153846153846154" width="60" height="3.2769230769230773" fill="#B22234"/><rect x="0" y="9.23076923076923" width="60" height="3.2769230769230773" fill="#fff"/><rect x="0" y="12.307692307692308" width="60" height="3.2769230769230773" fill="#B22234"/><rect x="0" y="15.384615384615385" width="60" height="3.2769230769230773" fill="#fff"/><rect x="0" y="18.46153846153846" width="60" height="3.2769230769230773" fill="#B22234"/><rect x="0" y="21.53846153846154" width="60" height="3.2769230769230773" fill="#fff"/><rect x="0" y="24.615384615384617" width="60" height="3.2769230769230773" fill="#B22234"/><rect x="0" y="27.692307692307693" width="60" height="3.2769230769230773" fill="#fff"/><rect x="0" y="30.76923076923077" width="60" height="3.2769230769230773" fill="#B22234"/><rect x="0" y="33.84615384615385" width="60" height="3.2769230769230773" fill="#fff"/><rect x="0" y="36.92307692307692" width="60" height="3.2769230769230773" fill="#B22234"/><rect x="0" y="0" width="24" height="21.53846153846154" fill="#3C3B6E"/><g fill="#fff"><circle cx="2.2" cy="2" r="0.7"/><circle cx="6" cy="2" r="0.7"/><circle cx="9.8" cy="2" r="0.7"/><circle cx="13.599999999999998" cy="2" r="0.7"/><circle cx="17.4" cy="2" r="0.7"/><circle cx="21.2" cy="2" r="0.7"/><circle cx="4.1" cy="4.8" r="0.7"/><circle cx="7.9" cy="4.8" r="0.7"/><circle cx="11.700000000000001" cy="4.8" r="0.7"/><circle cx="15.499999999999998" cy="4.8" r="0.7"/><circle cx="19.299999999999997" cy="4.8" r="0.7"/><circle cx="2.2" cy="7.6" r="0.7"/><circle cx="6" cy="7.6" r="0.7"/><circle cx="9.8" cy="7.6" r="0.7"/><circle cx="13.599999999999998" cy="7.6" r="0.7"/><circle cx="17.4" cy="7.6" r="0.7"/><circle cx="21.2" cy="7.6" r="0.7"/><circle cx="4.1" cy="10.399999999999999" r="0.7"/><circle cx="7.9" cy="10.399999999999999" r="0.7"/><circle cx="11.700000000000001" cy="10.399999999999999" r="0.7"/><circle cx="15.499999999999998" cy="10.399999999999999" r="0.7"/><circle cx="19.299999999999997" cy="10.399999999999999" r="0.7"/><circle cx="2.2" cy="13.2" r="0.7"/><circle cx="6" cy="13.2" r="0.7"/><circle cx="9.8" cy="13.2" r="0.7"/><circle cx="13.599999999999998" cy="13.2" r="0.7"/><circle cx="17.4" cy="13.2" r="0.7"/><circle cx="21.2" cy="13.2" r="0.7"/><circle cx="4.1" cy="16" r="0.7"/><circle cx="7.9" cy="16" r="0.7"/><circle cx="11.700000000000001" cy="16" r="0.7"/><circle cx="15.499999999999998" cy="16" r="0.7"/><circle cx="19.299999999999997" cy="16" r="0.7"/><circle cx="2.2" cy="18.799999999999997" r="0.7"/><circle cx="6" cy="18.799999999999997" r="0.7"/><circle cx="9.8" cy="18.799999999999997" r="0.7"/><circle cx="13.599999999999998" cy="18.799999999999997" r="0.7"/><circle cx="17.4" cy="18.799999999999997" r="0.7"/><circle cx="21.2" cy="18.799999999999997" r="0.7"/><circle cx="4.1" cy="21.599999999999998" r="0.7"/><circle cx="7.9" cy="21.599999999999998" r="0.7"/><circle cx="11.700000000000001" cy="21.599999999999998" r="0.7"/><circle cx="15.499999999999998" cy="21.599999999999998" r="0.7"/><circle cx="19.299999999999997" cy="21.599999999999998" r="0.7"/><circle cx="2.2" cy="24.4" r="0.7"/><circle cx="6" cy="24.4" r="0.7"/><circle cx="9.8" cy="24.4" r="0.7"/><circle cx="13.599999999999998" cy="24.4" r="0.7"/><circle cx="17.4" cy="24.4" r="0.7"/><circle cx="21.2" cy="24.4" r="0.7"/></g></svg>
